<svg width="322" height="198" viewBox="0 0 322 198" fill="none" xmlns="http://www.w3.org/2000/svg">
<path d="M0 42.3665V129.057H322V42.3665H0Z" fill="#49659C"/>
<path d="M140.749 116.046C131.355 120.408 120.465 122.759 111.647 115.167C110.993 114.603 110.477 113.989 110.659 113.077C110.94 111.666 112.377 110.352 113.133 109.163C114.385 107.194 115.434 104.988 116.162 102.772C118.897 94.4451 118.641 82.7681 111.093 76.977C102.118 70.0908 91.4729 76.5775 88.5333 86.0563C85.6673 95.2981 89.2741 106.321 95.7746 113.096C89.7402 114.825 84.2128 117.837 77.9827 119.159C62.9905 122.341 46.6719 119.28 33.5029 111.615C25.6519 107.046 18.4957 100.816 13.1953 93.4309C11.3244 90.8242 8.8407 86.7303 4.95105 89.0941C0.617038 91.7283 5.77625 97.8949 7.63263 100.314C14.3384 109.052 23.429 116.666 33.5029 121.302C48.7511 128.32 65.0371 130.234 81.4422 126.758C86.1966 125.752 90.818 124.209 95.2804 122.299C97.1663 121.492 100.128 119.328 102.199 119.559C105.445 119.921 109.021 123.843 112.084 125.178C120.086 128.667 128.399 129.65 136.795 127.065C140.105 126.046 143.896 124.604 146.185 121.946C150.068 125.471 155.135 128.456 160.517 128.782C169.739 129.343 178.336 121.52 180.78 113.096H181.769C187.951 129.866 213.363 133.286 225.754 121.9C228.621 119.265 231.029 116.193 232.559 112.605C233.482 110.44 233.679 106.731 235.751 105.365C238.486 103.563 242.437 102.692 245.523 101.62C253.333 98.9067 261.896 96.421 270.234 96.3812C281.598 96.3266 292.763 98.3138 302.853 103.769C305.943 105.441 311.544 110.57 315.013 107.436C317.613 105.087 316.101 101.996 313.717 100.265C308.634 96.5759 302.405 93.7401 296.428 91.862C282.957 87.63 268.705 86.9186 254.913 90.1049C248 91.7023 241.508 94.7642 234.65 96.3807C233.758 91.6674 232.708 86.9029 229.546 83.1069C227.215 80.3089 224.193 78.1677 220.812 76.8173C217.888 75.6492 215.06 75.1709 211.916 75.2475C193.536 75.6954 187.58 101.105 203.514 109.893C206.715 111.658 209.795 112.154 213.399 112.111C217.259 112.065 221.358 110.949 224.766 109.163C219.582 120.003 205.444 123.649 195.607 116.641C190.717 113.158 188.084 107.885 186.503 102.28C185.252 97.8423 185.968 93.3964 185.058 89.0066C184.665 87.1084 183.332 85.4075 181.275 85.2369C176.26 84.8214 176.515 91.5656 176.352 94.9058C176.004 102.01 174.382 109.265 170.026 115.062C166.587 119.639 161.853 121.693 156.564 118.93C155.351 118.296 153.269 117.245 152.971 115.756C152.681 114.308 154.556 112.353 155.175 111.13C156.897 107.729 158.387 104.003 159.342 100.314C161.734 91.0725 162.494 81.8049 162.494 72.2905C162.494 65.5073 161.583 57.8699 157.599 52.1334C156.515 50.5727 155.163 49.1911 153.598 48.102C152.388 47.2598 151.064 46.6993 149.645 46.3123C139.649 43.5874 133.679 53.723 131.797 61.9661C130.247 68.758 130.614 76.233 131.274 83.1065C131.897 89.5838 132.534 96.037 134.58 102.28C136.176 107.152 138.732 111.391 140.749 116.046Z" fill="#FCD75B"/>
<path d="M146.185 108.672H147.173C152.717 95.4259 155.416 81.8417 154.008 67.3741C153.628 63.4636 152.045 54.3245 146.679 54.3245C141.398 54.3245 139.74 63.4973 139.35 67.3741C137.904 81.7637 140.665 95.4834 146.185 108.672ZM100.719 82.9798C94.1011 85.518 95.781 96.863 97.9689 101.789C98.7225 103.486 100.75 108.156 103.188 107.518C104.935 107.061 106.203 104.724 106.98 103.264C109.426 98.6697 110.357 92.5243 108.723 87.5312C107.654 84.2652 104.245 81.6271 100.719 82.9798ZM226.249 100.314C226.248 97.2258 226.083 94.3443 224.825 91.4643C223.929 89.4122 222.576 87.6414 220.81 86.2483C219.238 85.0081 217.344 84.1973 215.376 83.828C213.483 83.4727 211.302 83.4344 209.445 83.9915C202.652 86.03 200.314 94.9313 204.766 100.268C207.123 103.094 210.339 103.969 213.893 103.711C218.244 103.395 222.022 101.037 226.249 100.314Z" fill="#49659C"/>
<path d="M85.752 4.832C85.08 4.832 84.504 4.604 84.024 4.148C83.568 3.692 83.34 3.14 83.34 2.492C83.34 1.82 83.568 1.256 84.024 0.799998C84.504 0.319999 85.08 0.079999 85.752 0.079999C86.4 0.079999 86.952 0.319999 87.408 0.799998C87.888 1.256 88.128 1.82 88.128 2.492C88.128 3.14 87.888 3.692 87.408 4.148C86.952 4.604 86.4 4.832 85.752 4.832ZM87.876 21.284C87.876 23.156 88.068 24.584 88.452 25.568C87.78 26.168 87.024 26.468 86.184 26.468C85.536 26.468 85.008 26.288 84.6 25.928C84.192 25.544 83.988 25.028 83.988 24.38L83.952 12.212C83.952 10.46 83.76 9.02 83.376 7.892C84.096 7.316 84.828 7.028 85.572 7.028C86.22 7.028 86.748 7.22 87.156 7.604C87.588 7.964 87.804 8.468 87.804 9.116L87.876 21.284ZM109.03 21.284C109.078 23.252 109.294 24.68 109.678 25.568C109.03 26.168 108.274 26.468 107.41 26.468C106.738 26.468 106.186 26.288 105.754 25.928C105.322 25.544 105.106 25.028 105.106 24.38V14.984C105.082 12.992 104.842 11.528 104.386 10.592C103.954 9.632 103.15 9.152 101.974 9.152C101.182 9.152 100.45 9.452 99.7777 10.052C99.1297 10.652 98.6017 11.576 98.1937 12.824C97.7857 14.048 97.5817 15.584 97.5817 17.432C97.5817 20.264 97.6177 22.136 97.6897 23.048C97.7617 23.96 97.9537 24.812 98.2657 25.604C98.0257 25.82 97.7017 26.012 97.2937 26.18C96.9097 26.372 96.4897 26.468 96.0337 26.468C95.3377 26.468 94.7737 26.264 94.3417 25.856C93.9097 25.448 93.6937 24.896 93.6937 24.2V11.924C93.6697 11.252 93.5857 10.772 93.4417 10.484C93.2977 10.196 93.0577 10.052 92.7217 10.052C92.2657 10.052 91.9537 10.22 91.7857 10.556C91.4737 10.1 91.3177 9.644 91.3177 9.188C91.3177 8.564 91.5457 8.06 92.0017 7.676C92.4577 7.268 93.0937 7.064 93.9097 7.064C94.9417 7.064 95.7337 7.424 96.2857 8.144C96.8617 8.84 97.1497 9.884 97.1497 11.276V11.456C97.6297 10.04 98.3857 8.96 99.4177 8.216C100.474 7.448 101.746 7.064 103.234 7.064C105.202 7.064 106.654 7.676 107.59 8.9C108.55 10.124 109.03 11.96 109.03 14.408V21.284ZM119.544 26.468C117.288 26.468 115.584 26.084 114.432 25.316C113.28 24.548 112.704 23.516 112.704 22.22C112.704 21.572 112.884 21.02 113.244 20.564C113.628 20.108 114.216 19.88 115.008 19.88C115.152 19.88 115.392 19.904 115.728 19.952C115.656 20.24 115.62 20.504 115.62 20.744C115.62 21.032 115.656 21.344 115.728 21.68C115.848 22.64 116.268 23.42 116.988 24.02C117.732 24.62 118.74 24.92 120.012 24.92C121.14 24.92 122.052 24.716 122.748 24.308C123.444 23.876 123.792 23.252 123.792 22.436C123.792 21.884 123.624 21.404 123.288 20.996C122.976 20.564 122.58 20.204 122.1 19.916C121.62 19.628 120.936 19.268 120.048 18.836C119.856 18.764 119.568 18.632 119.184 18.44C117.888 17.84 116.856 17.312 116.088 16.856C115.344 16.376 114.696 15.74 114.144 14.948C113.616 14.156 113.352 13.184 113.352 12.032C113.352 10.352 114 9.104 115.296 8.288C116.592 7.448 118.236 7.028 120.228 7.028C122.22 7.028 123.792 7.34 124.944 7.964C126.096 8.564 126.672 9.44 126.672 10.592C126.672 11.12 126.516 11.576 126.204 11.96C125.916 12.32 125.448 12.512 124.8 12.536C124.68 12.56 124.524 12.572 124.332 12.572C124.212 12.572 123.984 12.548 123.648 12.5C123.672 12.356 123.684 12.14 123.684 11.852C123.684 11.324 123.612 10.928 123.468 10.664C123.324 9.992 122.952 9.476 122.352 9.116C121.776 8.732 121.02 8.54 120.084 8.54C119.196 8.54 118.44 8.72 117.816 9.08C117.216 9.44 116.916 9.992 116.916 10.736C116.916 11.408 117.108 11.984 117.492 12.464C117.9 12.944 118.392 13.352 118.968 13.688C119.544 14.024 120.36 14.444 121.416 14.948C122.88 15.644 123.972 16.208 124.692 16.64C125.412 17.048 126.06 17.612 126.636 18.332C127.212 19.052 127.5 19.928 127.5 20.96C127.5 22.496 126.852 23.804 125.556 24.884C124.284 25.94 122.28 26.468 119.544 26.468ZM136.271 7.568C136.727 7.568 137.351 7.556 138.143 7.532C138.935 7.508 139.559 7.484 140.015 7.46L139.979 8.432C139.955 8.744 139.847 8.996 139.655 9.188C139.487 9.356 139.259 9.44 138.971 9.44H135.587V10.628L135.551 21.464C135.551 22.76 136.115 23.408 137.243 23.408C137.579 23.408 137.891 23.36 138.179 23.264C138.491 23.144 138.695 22.988 138.791 22.796C139.103 23.252 139.259 23.696 139.259 24.128C139.259 24.8 138.923 25.352 138.251 25.784C137.603 26.192 136.763 26.396 135.731 26.396C134.435 26.396 133.427 25.988 132.707 25.172C131.987 24.356 131.627 23.228 131.627 21.788V9.44H131.123C130.811 9.44 130.451 9.452 130.043 9.476C129.635 9.5 129.275 9.536 128.963 9.584L128.999 8.54C129.023 8.228 129.131 7.988 129.323 7.82C129.515 7.652 129.755 7.568 130.043 7.568H131.627V4.832C131.627 4.208 131.843 3.716 132.275 3.356C132.707 2.972 133.259 2.78 133.931 2.78C134.771 2.78 135.515 3.068 136.163 3.644C135.875 4.7 135.695 6.008 135.623 7.568H136.271ZM145.764 4.832C145.092 4.832 144.516 4.604 144.036 4.148C143.58 3.692 143.352 3.14 143.352 2.492C143.352 1.82 143.58 1.256 144.036 0.799998C144.516 0.319999 145.092 0.079999 145.764 0.079999C146.412 0.079999 146.964 0.319999 147.42 0.799998C147.9 1.256 148.14 1.82 148.14 2.492C148.14 3.14 147.9 3.692 147.42 4.148C146.964 4.604 146.412 4.832 145.764 4.832ZM147.888 21.284C147.888 23.156 148.08 24.584 148.464 25.568C147.792 26.168 147.036 26.468 146.196 26.468C145.548 26.468 145.02 26.288 144.612 25.928C144.204 25.544 144 25.028 144 24.38L143.964 12.212C143.964 10.46 143.772 9.02 143.388 7.892C144.108 7.316 144.84 7.028 145.584 7.028C146.232 7.028 146.76 7.22 147.168 7.604C147.6 7.964 147.816 8.468 147.816 9.116L147.888 21.284ZM158.349 7.568C158.805 7.568 159.429 7.556 160.221 7.532C161.013 7.508 161.637 7.484 162.093 7.46L162.057 8.432C162.033 8.744 161.925 8.996 161.733 9.188C161.565 9.356 161.337 9.44 161.049 9.44H157.665V10.628L157.629 21.464C157.629 22.76 158.193 23.408 159.321 23.408C159.657 23.408 159.969 23.36 160.257 23.264C160.569 23.144 160.773 22.988 160.869 22.796C161.181 23.252 161.337 23.696 161.337 24.128C161.337 24.8 161.001 25.352 160.329 25.784C159.681 26.192 158.841 26.396 157.809 26.396C156.513 26.396 155.505 25.988 154.785 25.172C154.065 24.356 153.705 23.228 153.705 21.788V9.44H153.201C152.889 9.44 152.529 9.452 152.121 9.476C151.713 9.5 151.353 9.536 151.041 9.584L151.077 8.54C151.101 8.228 151.209 7.988 151.401 7.82C151.593 7.652 151.833 7.568 152.121 7.568H153.705V4.832C153.705 4.208 153.921 3.716 154.353 3.356C154.785 2.972 155.337 2.78 156.009 2.78C156.849 2.78 157.593 3.068 158.241 3.644C157.953 4.7 157.773 6.008 157.701 7.568H158.349ZM182.674 22.976C182.962 23.384 183.106 23.828 183.106 24.308C183.106 24.956 182.878 25.472 182.422 25.856C181.99 26.24 181.366 26.432 180.55 26.432C179.494 26.432 178.678 26.084 178.102 25.388C177.55 24.692 177.274 23.648 177.274 22.256V22.184C176.77 23.576 176.014 24.644 175.006 25.388C174.022 26.132 172.798 26.504 171.334 26.504C169.366 26.504 167.926 25.94 167.014 24.812C166.126 23.684 165.682 21.788 165.682 19.124L165.646 12.248C165.646 10.4 165.454 8.96 165.07 7.928C165.742 7.352 166.498 7.064 167.338 7.064C168.01 7.064 168.55 7.256 168.958 7.64C169.39 8 169.606 8.504 169.606 9.152V18.548C169.606 20.708 169.822 22.256 170.254 23.192C170.686 24.104 171.466 24.56 172.594 24.56C173.362 24.56 174.07 24.26 174.718 23.66C175.366 23.036 175.882 22.088 176.266 20.816C176.674 19.544 176.878 17.972 176.878 16.1C176.878 13.268 176.842 11.396 176.77 10.484C176.698 9.548 176.506 8.684 176.194 7.892C176.89 7.34 177.646 7.064 178.462 7.064C179.11 7.064 179.65 7.268 180.082 7.676C180.514 8.084 180.73 8.636 180.73 9.332L180.766 21.608C180.766 22.28 180.838 22.76 180.982 23.048C181.15 23.312 181.402 23.444 181.738 23.444C182.17 23.444 182.482 23.288 182.674 22.976ZM191.537 7.568C191.993 7.568 192.617 7.556 193.409 7.532C194.201 7.508 194.825 7.484 195.281 7.46L195.245 8.432C195.221 8.744 195.113 8.996 194.921 9.188C194.753 9.356 194.525 9.44 194.237 9.44H190.853V10.628L190.817 21.464C190.817 22.76 191.381 23.408 192.509 23.408C192.845 23.408 193.157 23.36 193.445 23.264C193.757 23.144 193.961 22.988 194.057 22.796C194.369 23.252 194.525 23.696 194.525 24.128C194.525 24.8 194.189 25.352 193.517 25.784C192.869 26.192 192.029 26.396 190.997 26.396C189.701 26.396 188.693 25.988 187.973 25.172C187.253 24.356 186.893 23.228 186.893 21.788V9.44H186.389C186.077 9.44 185.717 9.452 185.309 9.476C184.901 9.5 184.541 9.536 184.229 9.584L184.265 8.54C184.289 8.228 184.397 7.988 184.589 7.82C184.781 7.652 185.021 7.568 185.309 7.568H186.893V4.832C186.893 4.208 187.109 3.716 187.541 3.356C187.973 2.972 188.525 2.78 189.197 2.78C190.037 2.78 190.781 3.068 191.429 3.644C191.141 4.7 190.961 6.008 190.889 7.568H191.537ZM206.249 26.468C203.537 26.468 201.425 25.616 199.913 23.912C198.425 22.208 197.681 19.832 197.681 16.784C197.681 13.712 198.437 11.324 199.949 9.62C201.461 7.916 203.561 7.064 206.249 7.064C208.961 7.064 211.073 7.916 212.585 9.62C214.097 11.324 214.853 13.712 214.853 16.784C214.853 19.832 214.097 22.208 212.585 23.912C211.073 25.616 208.961 26.468 206.249 26.468ZM206.249 24.992C207.689 24.992 208.769 24.296 209.489 22.904C210.233 21.512 210.605 19.472 210.605 16.784C210.605 14.072 210.233 12.02 209.489 10.628C208.769 9.236 207.689 8.54 206.249 8.54C204.809 8.54 203.717 9.236 202.973 10.628C202.253 12.02 201.893 14.072 201.893 16.784C201.893 19.472 202.253 21.512 202.973 22.904C203.717 24.296 204.809 24.992 206.249 24.992Z" fill="#39B5AA"/>
<path d="M64.74 159.568C65.196 159.568 65.82 159.556 66.612 159.532C67.404 159.508 68.028 159.484 68.484 159.46L68.448 160.432C68.424 160.744 68.316 160.996 68.124 161.188C67.956 161.356 67.728 161.44 67.44 161.44H64.056V162.628L64.02 173.464C64.02 174.76 64.584 175.408 65.712 175.408C66.048 175.408 66.36 175.36 66.648 175.264C66.96 175.144 67.164 174.988 67.26 174.796C67.572 175.252 67.728 175.696 67.728 176.128C67.728 176.8 67.392 177.352 66.72 177.784C66.072 178.192 65.232 178.396 64.2 178.396C62.904 178.396 61.896 177.988 61.176 177.172C60.456 176.356 60.096 175.228 60.096 173.788V161.44H59.592C59.28 161.44 58.92 161.452 58.512 161.476C58.104 161.5 57.744 161.536 57.432 161.584L57.468 160.54C57.492 160.228 57.6 159.988 57.792 159.82C57.984 159.652 58.224 159.568 58.512 159.568H60.096V156.832C60.096 156.208 60.312 155.716 60.744 155.356C61.176 154.972 61.728 154.78 62.4 154.78C63.24 154.78 63.984 155.068 64.632 155.644C64.344 156.7 64.164 158.008 64.092 159.568H64.74ZM86.0045 173.032C86.3885 173.2 86.5805 173.5 86.5805 173.932C86.5805 174.22 86.4965 174.568 86.3285 174.976C85.8725 176.104 85.0565 176.968 83.8805 177.568C82.7285 178.168 81.3365 178.468 79.7045 178.468C76.9685 178.468 74.8085 177.628 73.2245 175.948C71.6645 174.268 70.8845 171.88 70.8845 168.784C70.8845 165.736 71.6525 163.36 73.1885 161.656C74.7245 159.928 76.9205 159.064 79.7765 159.064C81.8645 159.064 83.5565 159.532 84.8525 160.468C86.1485 161.38 86.7965 162.688 86.7965 164.392C86.7965 166.168 86.0765 167.536 84.6365 168.496C83.2205 169.432 81.2885 169.9 78.8405 169.9C77.4485 169.9 76.2125 169.84 75.1325 169.72C75.3005 171.952 75.8645 173.548 76.8245 174.508C77.7845 175.468 79.0925 175.948 80.7485 175.948C82.0445 175.948 83.1485 175.684 84.0605 175.156C84.9965 174.628 85.6445 173.92 86.0045 173.032ZM79.6325 160.54C78.2165 160.54 77.1005 161.212 76.2845 162.556C75.4925 163.876 75.0965 165.76 75.0965 168.208C75.7205 168.28 76.3565 168.316 77.0045 168.316C78.6365 168.316 79.9685 167.992 81.0005 167.344C82.0325 166.696 82.5485 165.508 82.5485 163.78C82.5485 162.604 82.2725 161.776 81.7205 161.296C81.1685 160.792 80.4725 160.54 79.6325 160.54ZM99.4524 159.064C100.772 159.064 101.84 159.412 102.656 160.108C103.472 160.804 103.88 161.764 103.88 162.988C103.88 163.9 103.616 164.632 103.088 165.184C102.56 165.736 101.9 166.012 101.108 166.012C100.364 166.012 99.8244 165.82 99.4884 165.436C99.7524 165.004 99.9324 164.62 100.028 164.284C100.124 163.924 100.172 163.516 100.172 163.06C100.172 161.692 99.5724 161.008 98.3724 161.008C97.4124 161.008 96.6324 161.716 96.0324 163.132C95.4564 164.524 95.1684 166.624 95.1684 169.432V170.8C95.1684 172.936 95.2044 174.412 95.2764 175.228C95.3484 176.02 95.5284 176.776 95.8164 177.496C95.5764 177.712 95.2644 177.904 94.8804 178.072C94.4964 178.24 94.0524 178.336 93.5484 178.36C92.9004 178.36 92.3484 178.156 91.8924 177.748C91.4604 177.34 91.2444 176.788 91.2444 176.092V163.924C91.2444 163.276 91.1604 162.808 90.9924 162.52C90.8484 162.208 90.6084 162.052 90.2724 162.052C89.8164 162.052 89.5044 162.22 89.3364 162.556C89.0244 162.1 88.8684 161.644 88.8684 161.188C88.8684 160.564 89.0964 160.06 89.5524 159.676C90.0084 159.268 90.6444 159.064 91.4604 159.064C92.4444 159.064 93.2244 159.4 93.8004 160.072C94.3764 160.744 94.6764 161.74 94.7004 163.06C95.5404 160.396 97.1244 159.064 99.4524 159.064ZM124.006 174.796C124.294 175.18 124.438 175.624 124.438 176.128C124.438 176.752 124.162 177.28 123.61 177.712C123.058 178.144 122.35 178.36 121.486 178.36C120.31 178.36 119.422 177.964 118.822 177.172C118.222 176.356 117.91 175.048 117.886 173.248C117.166 174.808 116.182 176.056 114.934 176.992C113.686 177.928 112.258 178.396 110.65 178.396C109.258 178.396 108.13 178.024 107.266 177.28C106.426 176.512 106.006 175.48 106.006 174.184C106.006 172.672 106.582 171.424 107.734 170.44C108.886 169.456 110.362 168.712 112.162 168.208C113.962 167.704 115.798 167.476 117.67 167.524V166.624C117.67 164.536 117.382 163 116.806 162.016C116.23 161.032 115.27 160.54 113.926 160.54C113.014 160.54 112.27 160.756 111.694 161.188C111.142 161.62 110.866 162.328 110.866 163.312C110.866 163.864 110.974 164.38 111.19 164.86C111.406 165.34 111.766 165.7 112.27 165.94C112.03 166.204 111.706 166.408 111.298 166.552C110.914 166.672 110.506 166.732 110.074 166.732C109.114 166.732 108.334 166.42 107.734 165.796C107.158 165.148 106.87 164.368 106.87 163.456C106.87 162.04 107.518 160.96 108.814 160.216C110.11 159.448 111.898 159.064 114.178 159.064C116.77 159.064 118.666 159.688 119.866 160.936C121.09 162.16 121.702 164.128 121.702 166.84V173.464C121.702 174.736 122.11 175.372 122.926 175.372C123.118 175.372 123.31 175.324 123.502 175.228C123.718 175.132 123.886 174.988 124.006 174.796ZM112.45 175.768C113.242 175.768 114.046 175.456 114.862 174.832C115.702 174.184 116.398 173.332 116.95 172.276C117.502 171.22 117.778 170.092 117.778 168.892C116.938 168.844 116.086 168.892 115.222 169.036C114.358 169.156 113.614 169.36 112.99 169.648C112.15 170.008 111.49 170.5 111.01 171.124C110.554 171.724 110.326 172.432 110.326 173.248C110.326 173.968 110.494 174.568 110.83 175.048C111.19 175.528 111.73 175.768 112.45 175.768ZM137.635 159.064C139.915 159.064 141.535 159.916 142.495 161.62C143.479 163.324 143.971 165.46 143.971 168.028C143.971 171.364 143.287 173.944 141.919 175.768C140.575 177.568 138.691 178.468 136.267 178.468C135.139 178.468 134.179 178.264 133.387 177.856C132.595 177.424 132.031 176.812 131.695 176.02V178.9C131.695 181.444 131.899 183.484 132.307 185.02C131.659 185.596 130.903 185.884 130.039 185.884C129.391 185.884 128.851 185.692 128.419 185.308C127.987 184.948 127.771 184.456 127.771 183.832L127.807 164.032C127.807 163.384 127.723 162.916 127.555 162.628C127.411 162.34 127.171 162.196 126.835 162.196C126.379 162.196 126.067 162.352 125.899 162.664C125.587 162.208 125.431 161.752 125.431 161.296C125.431 160.696 125.671 160.204 126.151 159.82C126.631 159.412 127.255 159.208 128.023 159.208C130.111 159.208 131.251 160.768 131.443 163.888C132.619 160.672 134.683 159.064 137.635 159.064ZM135.331 176.344C138.283 176.344 139.759 173.572 139.759 168.028C139.759 165.892 139.531 164.236 139.075 163.06C138.619 161.86 137.755 161.26 136.483 161.26C135.475 161.26 134.611 161.692 133.891 162.556C133.171 163.42 132.631 164.56 132.271 165.976C131.911 167.392 131.731 168.892 131.731 170.476C131.731 172.396 131.995 173.86 132.523 174.868C133.075 175.852 134.011 176.344 135.331 176.344ZM161.907 173.032C162.291 173.2 162.483 173.5 162.483 173.932C162.483 174.22 162.399 174.568 162.231 174.976C161.775 176.104 160.959 176.968 159.783 177.568C158.631 178.168 157.239 178.468 155.607 178.468C152.871 178.468 150.711 177.628 149.127 175.948C147.567 174.268 146.787 171.88 146.787 168.784C146.787 165.736 147.555 163.36 149.091 161.656C150.627 159.928 152.823 159.064 155.679 159.064C157.767 159.064 159.459 159.532 160.755 160.468C162.051 161.38 162.699 162.688 162.699 164.392C162.699 166.168 161.979 167.536 160.539 168.496C159.123 169.432 157.191 169.9 154.743 169.9C153.351 169.9 152.115 169.84 151.035 169.72C151.203 171.952 151.767 173.548 152.727 174.508C153.687 175.468 154.995 175.948 156.651 175.948C157.947 175.948 159.051 175.684 159.963 175.156C160.899 174.628 161.547 173.92 161.907 173.032ZM155.535 160.54C154.119 160.54 153.003 161.212 152.187 162.556C151.395 163.876 150.999 165.76 150.999 168.208C151.623 168.28 152.259 168.316 152.907 168.316C154.539 168.316 155.871 167.992 156.903 167.344C157.935 166.696 158.451 165.508 158.451 163.78C158.451 162.604 158.175 161.776 157.623 161.296C157.071 160.792 156.375 160.54 155.535 160.54ZM150.675 157.66C150.507 157.66 150.255 157.612 149.919 157.516C149.607 157.396 149.439 157.288 149.415 157.192L153.915 151.828C154.131 151.756 154.527 151.72 155.103 151.72C155.559 151.72 155.895 151.756 156.111 151.828L160.611 157.192C160.587 157.288 160.407 157.396 160.071 157.516C159.735 157.612 159.483 157.66 159.315 157.66L155.031 154.636L150.675 157.66ZM183.635 174.976C183.923 175.384 184.067 175.828 184.067 176.308C184.067 176.956 183.839 177.472 183.383 177.856C182.951 178.24 182.327 178.432 181.511 178.432C180.455 178.432 179.639 178.084 179.063 177.388C178.511 176.692 178.235 175.648 178.235 174.256V174.184C177.731 175.576 176.975 176.644 175.967 177.388C174.983 178.132 173.759 178.504 172.295 178.504C170.327 178.504 168.887 177.94 167.975 176.812C167.087 175.684 166.643 173.788 166.643 171.124L166.607 164.248C166.607 162.4 166.415 160.96 166.031 159.928C166.703 159.352 167.459 159.064 168.299 159.064C168.971 159.064 169.511 159.256 169.919 159.64C170.351 160 170.567 160.504 170.567 161.152V170.548C170.567 172.708 170.783 174.256 171.215 175.192C171.647 176.104 172.427 176.56 173.555 176.56C174.323 176.56 175.031 176.26 175.679 175.66C176.327 175.036 176.843 174.088 177.227 172.816C177.635 171.544 177.839 169.972 177.839 168.1C177.839 165.268 177.803 163.396 177.731 162.484C177.659 161.548 177.467 160.684 177.155 159.892C177.851 159.34 178.607 159.064 179.423 159.064C180.071 159.064 180.611 159.268 181.043 159.676C181.475 160.084 181.691 160.636 181.691 161.332L181.727 173.608C181.727 174.28 181.799 174.76 181.943 175.048C182.111 175.312 182.363 175.444 182.699 175.444C183.131 175.444 183.443 175.288 183.635 174.976ZM192.498 159.568C192.954 159.568 193.578 159.556 194.37 159.532C195.162 159.508 195.786 159.484 196.242 159.46L196.206 160.432C196.182 160.744 196.074 160.996 195.882 161.188C195.714 161.356 195.486 161.44 195.198 161.44H191.814V162.628L191.778 173.464C191.778 174.76 192.342 175.408 193.47 175.408C193.806 175.408 194.118 175.36 194.406 175.264C194.718 175.144 194.922 174.988 195.018 174.796C195.33 175.252 195.486 175.696 195.486 176.128C195.486 176.8 195.15 177.352 194.478 177.784C193.83 178.192 192.99 178.396 191.958 178.396C190.662 178.396 189.654 177.988 188.934 177.172C188.214 176.356 187.854 175.228 187.854 173.788V161.44H187.35C187.038 161.44 186.678 161.452 186.27 161.476C185.862 161.5 185.502 161.536 185.19 161.584L185.226 160.54C185.25 160.228 185.358 159.988 185.55 159.82C185.742 159.652 185.982 159.568 186.27 159.568H187.854V156.832C187.854 156.208 188.07 155.716 188.502 155.356C188.934 154.972 189.486 154.78 190.158 154.78C190.998 154.78 191.742 155.068 192.39 155.644C192.102 156.7 191.922 158.008 191.85 159.568H192.498ZM201.99 156.832C201.318 156.832 200.742 156.604 200.262 156.148C199.806 155.692 199.578 155.14 199.578 154.492C199.578 153.82 199.806 153.256 200.262 152.8C200.742 152.32 201.318 152.08 201.99 152.08C202.638 152.08 203.19 152.32 203.646 152.8C204.126 153.256 204.366 153.82 204.366 154.492C204.366 155.14 204.126 155.692 203.646 156.148C203.19 156.604 202.638 156.832 201.99 156.832ZM204.114 173.284C204.114 175.156 204.306 176.584 204.69 177.568C204.018 178.168 203.262 178.468 202.422 178.468C201.774 178.468 201.246 178.288 200.838 177.928C200.43 177.544 200.226 177.028 200.226 176.38L200.19 164.212C200.19 162.46 199.998 161.02 199.614 159.892C200.334 159.316 201.066 159.028 201.81 159.028C202.458 159.028 202.986 159.22 203.394 159.604C203.826 159.964 204.042 160.468 204.042 161.116L204.114 173.284ZM216.988 178.468C214.204 178.468 212.044 177.64 210.508 175.984C208.996 174.304 208.24 171.904 208.24 168.784C208.24 165.76 209.02 163.384 210.58 161.656C212.14 159.928 214.336 159.064 217.168 159.064C219.208 159.064 220.78 159.496 221.884 160.36C223.012 161.2 223.576 162.292 223.576 163.636C223.576 164.548 223.3 165.28 222.748 165.832C222.22 166.384 221.524 166.66 220.66 166.66C220.252 166.66 219.844 166.6 219.436 166.48C219.052 166.336 218.752 166.132 218.536 165.868C219.256 165.388 219.616 164.536 219.616 163.312C219.616 162.352 219.364 161.656 218.86 161.224C218.356 160.768 217.684 160.54 216.844 160.54C215.5 160.54 214.432 161.212 213.64 162.556C212.848 163.876 212.452 165.748 212.452 168.172C212.452 170.86 212.956 172.828 213.964 174.076C214.972 175.324 216.364 175.948 218.14 175.948C219.412 175.948 220.504 175.636 221.416 175.012C222.328 174.388 222.916 173.536 223.18 172.456C223.564 172.6 223.756 172.948 223.756 173.5C223.756 173.812 223.708 174.148 223.612 174.508C223.228 175.78 222.448 176.764 221.272 177.46C220.12 178.132 218.692 178.468 216.988 178.468ZM235.124 178.468C232.412 178.468 230.3 177.616 228.788 175.912C227.3 174.208 226.556 171.832 226.556 168.784C226.556 165.712 227.312 163.324 228.824 161.62C230.336 159.916 232.436 159.064 235.124 159.064C237.836 159.064 239.948 159.916 241.46 161.62C242.972 163.324 243.728 165.712 243.728 168.784C243.728 171.832 242.972 174.208 241.46 175.912C239.948 177.616 237.836 178.468 235.124 178.468ZM235.124 176.992C236.564 176.992 237.644 176.296 238.364 174.904C239.108 173.512 239.48 171.472 239.48 168.784C239.48 166.072 239.108 164.02 238.364 162.628C237.644 161.236 236.564 160.54 235.124 160.54C233.684 160.54 232.592 161.236 231.848 162.628C231.128 164.02 230.768 166.072 230.768 168.784C230.768 171.472 231.128 173.512 231.848 174.904C232.592 176.296 233.684 176.992 235.124 176.992Z" fill="#39B5AA"/>
</svg>
