<svg width="137" height="91" viewBox="0 0 137 91" fill="none" xmlns="http://www.w3.org/2000/svg">
<path d="M34.6935 11.592C34.3949 11.592 34.1389 11.4907 33.9255 11.288C33.7229 11.0853 33.6215 10.84 33.6215 10.552C33.6215 10.2533 33.7229 10.0027 33.9255 9.8C34.1389 9.58667 34.3949 9.48 34.6935 9.48C34.9815 9.48 35.2269 9.58667 35.4295 9.8C35.6429 10.0027 35.7495 10.2533 35.7495 10.552C35.7495 10.84 35.6429 11.0853 35.4295 11.288C35.2269 11.4907 34.9815 11.592 34.6935 11.592ZM35.6375 18.904C35.6375 19.736 35.7229 20.3707 35.8935 20.808C35.5949 21.0747 35.2589 21.208 34.8855 21.208C34.5975 21.208 34.3629 21.128 34.1815 20.968C34.0002 20.7973 33.9095 20.568 33.9095 20.28L33.8935 14.872C33.8935 14.0933 33.8082 13.4533 33.6375 12.952C33.9575 12.696 34.2829 12.568 34.6135 12.568C34.9015 12.568 35.1362 12.6533 35.3175 12.824C35.5095 12.984 35.6055 13.208 35.6055 13.496L35.6375 18.904ZM45.0392 18.904C45.0605 19.7787 45.1565 20.4133 45.3272 20.808C45.0392 21.0747 44.7032 21.208 44.3192 21.208C44.0205 21.208 43.7752 21.128 43.5832 20.968C43.3912 20.7973 43.2952 20.568 43.2952 20.28V16.104C43.2845 15.2187 43.1778 14.568 42.9752 14.152C42.7832 13.7253 42.4258 13.512 41.9032 13.512C41.5512 13.512 41.2258 13.6453 40.9272 13.912C40.6392 14.1787 40.4045 14.5893 40.2232 15.144C40.0418 15.688 39.9512 16.3707 39.9512 17.192C39.9512 18.4507 39.9672 19.2827 39.9992 19.688C40.0312 20.0933 40.1165 20.472 40.2552 20.824C40.1485 20.92 40.0045 21.0053 39.8232 21.08C39.6525 21.1653 39.4658 21.208 39.2632 21.208C38.9538 21.208 38.7032 21.1173 38.5112 20.936C38.3192 20.7547 38.2232 20.5093 38.2232 20.2V14.744C38.2125 14.4453 38.1752 14.232 38.1112 14.104C38.0472 13.976 37.9405 13.912 37.7912 13.912C37.5885 13.912 37.4498 13.9867 37.3752 14.136C37.2365 13.9333 37.1672 13.7307 37.1672 13.528C37.1672 13.2507 37.2685 13.0267 37.4712 12.856C37.6738 12.6747 37.9565 12.584 38.3192 12.584C38.7778 12.584 39.1298 12.744 39.3752 13.064C39.6312 13.3733 39.7592 13.8373 39.7592 14.456V14.536C39.9725 13.9067 40.3085 13.4267 40.7672 13.096C41.2365 12.7547 41.8018 12.584 42.4632 12.584C43.3378 12.584 43.9832 12.856 44.3992 13.4C44.8258 13.944 45.0392 14.76 45.0392 15.848V18.904ZM49.712 21.208C48.7094 21.208 47.952 21.0373 47.44 20.696C46.928 20.3547 46.672 19.896 46.672 19.32C46.672 19.032 46.752 18.7867 46.912 18.584C47.0827 18.3813 47.344 18.28 47.696 18.28C47.76 18.28 47.8667 18.2907 48.016 18.312C47.984 18.44 47.968 18.5573 47.968 18.664C47.968 18.792 47.984 18.9307 48.016 19.08C48.0694 19.5067 48.256 19.8533 48.576 20.12C48.9067 20.3867 49.3547 20.52 49.92 20.52C50.4214 20.52 50.8267 20.4293 51.136 20.248C51.4454 20.056 51.6 19.7787 51.6 19.416C51.6 19.1707 51.5254 18.9573 51.376 18.776C51.2374 18.584 51.0614 18.424 50.848 18.296C50.6347 18.168 50.3307 18.008 49.936 17.816C49.8507 17.784 49.7227 17.7253 49.552 17.64C48.976 17.3733 48.5174 17.1387 48.176 16.936C47.8454 16.7227 47.5574 16.44 47.312 16.088C47.0774 15.736 46.96 15.304 46.96 14.792C46.96 14.0453 47.248 13.4907 47.824 13.128C48.4 12.7547 49.1307 12.568 50.016 12.568C50.9014 12.568 51.6 12.7067 52.112 12.984C52.624 13.2507 52.88 13.64 52.88 14.152C52.88 14.3867 52.8107 14.5893 52.672 14.76C52.544 14.92 52.336 15.0053 52.048 15.016C51.9947 15.0267 51.9254 15.032 51.84 15.032C51.7867 15.032 51.6854 15.0213 51.536 15C51.5467 14.936 51.552 14.84 51.552 14.712C51.552 14.4773 51.52 14.3013 51.456 14.184C51.392 13.8853 51.2267 13.656 50.96 13.496C50.704 13.3253 50.368 13.24 49.952 13.24C49.5574 13.24 49.2214 13.32 48.944 13.48C48.6774 13.64 48.544 13.8853 48.544 14.216C48.544 14.5147 48.6294 14.7707 48.8 14.984C48.9814 15.1973 49.2 15.3787 49.456 15.528C49.712 15.6773 50.0747 15.864 50.544 16.088C51.1947 16.3973 51.68 16.648 52 16.84C52.32 17.0213 52.608 17.272 52.864 17.592C53.12 17.912 53.248 18.3013 53.248 18.76C53.248 19.4427 52.96 20.024 52.384 20.504C51.8187 20.9733 50.928 21.208 49.712 21.208ZM57.1465 12.808C57.3492 12.808 57.6265 12.8027 57.9785 12.792C58.3305 12.7813 58.6079 12.7707 58.8105 12.76L58.7945 13.192C58.7839 13.3307 58.7359 13.4427 58.6505 13.528C58.5759 13.6027 58.4745 13.64 58.3465 13.64H56.8425V14.168L56.8265 18.984C56.8265 19.56 57.0772 19.848 57.5785 19.848C57.7279 19.848 57.8665 19.8267 57.9945 19.784C58.1332 19.7307 58.2239 19.6613 58.2665 19.576C58.4052 19.7787 58.4745 19.976 58.4745 20.168C58.4745 20.4667 58.3252 20.712 58.0265 20.904C57.7385 21.0853 57.3652 21.176 56.9065 21.176C56.3305 21.176 55.8825 20.9947 55.5625 20.632C55.2425 20.2693 55.0825 19.768 55.0825 19.128V13.64H54.8585C54.7199 13.64 54.5599 13.6453 54.3785 13.656C54.1972 13.6667 54.0372 13.6827 53.8985 13.704L53.9145 13.24C53.9252 13.1013 53.9732 12.9947 54.0585 12.92C54.1439 12.8453 54.2505 12.808 54.3785 12.808H55.0825V11.592C55.0825 11.3147 55.1785 11.096 55.3705 10.936C55.5625 10.7653 55.8079 10.68 56.1065 10.68C56.4799 10.68 56.8105 10.808 57.0985 11.064C56.9705 11.5333 56.8905 12.1147 56.8585 12.808H57.1465ZM61.3654 11.592C61.0668 11.592 60.8108 11.4907 60.5974 11.288C60.3948 11.0853 60.2934 10.84 60.2934 10.552C60.2934 10.2533 60.3948 10.0027 60.5974 9.8C60.8108 9.58667 61.0668 9.48 61.3654 9.48C61.6534 9.48 61.8988 9.58667 62.1014 9.8C62.3148 10.0027 62.4214 10.2533 62.4214 10.552C62.4214 10.84 62.3148 11.0853 62.1014 11.288C61.8988 11.4907 61.6534 11.592 61.3654 11.592ZM62.3094 18.904C62.3094 19.736 62.3948 20.3707 62.5654 20.808C62.2668 21.0747 61.9308 21.208 61.5574 21.208C61.2694 21.208 61.0348 21.128 60.8534 20.968C60.6721 20.7973 60.5814 20.568 60.5814 20.28L60.5654 14.872C60.5654 14.0933 60.4801 13.4533 60.3094 12.952C60.6294 12.696 60.9548 12.568 61.2854 12.568C61.5734 12.568 61.8081 12.6533 61.9894 12.824C62.1814 12.984 62.2774 13.208 62.2774 13.496L62.3094 18.904ZM66.959 12.808C67.1617 12.808 67.439 12.8027 67.791 12.792C68.143 12.7813 68.4204 12.7707 68.623 12.76L68.607 13.192C68.5964 13.3307 68.5484 13.4427 68.463 13.528C68.3884 13.6027 68.287 13.64 68.159 13.64H66.655V14.168L66.639 18.984C66.639 19.56 66.8897 19.848 67.391 19.848C67.5404 19.848 67.679 19.8267 67.807 19.784C67.9457 19.7307 68.0364 19.6613 68.079 19.576C68.2177 19.7787 68.287 19.976 68.287 20.168C68.287 20.4667 68.1377 20.712 67.839 20.904C67.551 21.0853 67.1777 21.176 66.719 21.176C66.143 21.176 65.695 20.9947 65.375 20.632C65.055 20.2693 64.895 19.768 64.895 19.128V13.64H64.671C64.5324 13.64 64.3724 13.6453 64.191 13.656C64.0097 13.6667 63.8497 13.6827 63.711 13.704L63.727 13.24C63.7377 13.1013 63.7857 12.9947 63.871 12.92C63.9564 12.8453 64.063 12.808 64.191 12.808H64.895V11.592C64.895 11.3147 64.991 11.096 65.183 10.936C65.375 10.7653 65.6204 10.68 65.919 10.68C66.2924 10.68 66.623 10.808 66.911 11.064C66.783 11.5333 66.703 12.1147 66.671 12.808H66.959ZM77.7699 19.656C77.8979 19.8373 77.9619 20.0347 77.9619 20.248C77.9619 20.536 77.8606 20.7653 77.6579 20.936C77.4659 21.1067 77.1886 21.192 76.8259 21.192C76.3566 21.192 75.9939 21.0373 75.7379 20.728C75.4926 20.4187 75.3699 19.9547 75.3699 19.336V19.304C75.1459 19.9227 74.8099 20.3973 74.3619 20.728C73.9246 21.0587 73.3806 21.224 72.7299 21.224C71.8553 21.224 71.2153 20.9733 70.8099 20.472C70.4153 19.9707 70.2179 19.128 70.2179 17.944L70.2019 14.888C70.2019 14.0667 70.1166 13.4267 69.9459 12.968C70.2446 12.712 70.5806 12.584 70.9539 12.584C71.2526 12.584 71.4926 12.6693 71.6739 12.84C71.8659 13 71.9619 13.224 71.9619 13.512V17.688C71.9619 18.648 72.0579 19.336 72.2499 19.752C72.4419 20.1573 72.7886 20.36 73.2899 20.36C73.6313 20.36 73.9459 20.2267 74.2339 19.96C74.5219 19.6827 74.7513 19.2613 74.9219 18.696C75.1033 18.1307 75.1939 17.432 75.1939 16.6C75.1939 15.3413 75.1779 14.5093 75.1459 14.104C75.1139 13.688 75.0286 13.304 74.8899 12.952C75.1993 12.7067 75.5353 12.584 75.8979 12.584C76.1859 12.584 76.4259 12.6747 76.6179 12.856C76.8099 13.0373 76.9059 13.2827 76.9059 13.592L76.9219 19.048C76.9219 19.3467 76.9539 19.56 77.0179 19.688C77.0926 19.8053 77.2046 19.864 77.3539 19.864C77.5459 19.864 77.6846 19.7947 77.7699 19.656ZM81.709 12.808C81.9117 12.808 82.189 12.8027 82.541 12.792C82.893 12.7813 83.1704 12.7707 83.373 12.76L83.357 13.192C83.3464 13.3307 83.2984 13.4427 83.213 13.528C83.1384 13.6027 83.037 13.64 82.909 13.64H81.405V14.168L81.389 18.984C81.389 19.56 81.6397 19.848 82.141 19.848C82.2904 19.848 82.429 19.8267 82.557 19.784C82.6957 19.7307 82.7864 19.6613 82.829 19.576C82.9677 19.7787 83.037 19.976 83.037 20.168C83.037 20.4667 82.8877 20.712 82.589 20.904C82.301 21.0853 81.9277 21.176 81.469 21.176C80.893 21.176 80.445 20.9947 80.125 20.632C79.805 20.2693 79.645 19.768 79.645 19.128V13.64H79.421C79.2824 13.64 79.1224 13.6453 78.941 13.656C78.7597 13.6667 78.5997 13.6827 78.461 13.704L78.477 13.24C78.4877 13.1013 78.5357 12.9947 78.621 12.92C78.7064 12.8453 78.813 12.808 78.941 12.808H79.645V11.592C79.645 11.3147 79.741 11.096 79.933 10.936C80.125 10.7653 80.3704 10.68 80.669 10.68C81.0424 10.68 81.373 10.808 81.661 11.064C81.533 11.5333 81.453 12.1147 81.421 12.808H81.709ZM88.2479 21.208C87.0426 21.208 86.1039 20.8293 85.4319 20.072C84.7706 19.3147 84.4399 18.2587 84.4399 16.904C84.4399 15.5387 84.7759 14.4773 85.4479 13.72C86.1199 12.9627 87.0533 12.584 88.2479 12.584C89.4533 12.584 90.3919 12.9627 91.0639 13.72C91.7359 14.4773 92.0719 15.5387 92.0719 16.904C92.0719 18.2587 91.7359 19.3147 91.0639 20.072C90.3919 20.8293 89.4533 21.208 88.2479 21.208ZM88.2479 20.552C88.8879 20.552 89.3679 20.2427 89.6879 19.624C90.0186 19.0053 90.1839 18.0987 90.1839 16.904C90.1839 15.6987 90.0186 14.7867 89.6879 14.168C89.3679 13.5493 88.8879 13.24 88.2479 13.24C87.6079 13.24 87.1226 13.5493 86.7919 14.168C86.4719 14.7867 86.3119 15.6987 86.3119 16.904C86.3119 18.0987 86.4719 19.0053 86.7919 19.624C87.1226 20.2427 87.6079 20.552 88.2479 20.552Z" fill="#39B5AA"/>
<path d="M29.0215 73.808C29.2242 73.808 29.5015 73.8027 29.8535 73.792C30.2055 73.7813 30.4829 73.7707 30.6855 73.76L30.6695 74.192C30.6589 74.3307 30.6109 74.4427 30.5255 74.528C30.4509 74.6027 30.3495 74.64 30.2215 74.64H28.7175V75.168L28.7015 79.984C28.7015 80.56 28.9522 80.848 29.4535 80.848C29.6029 80.848 29.7415 80.8267 29.8695 80.784C30.0082 80.7307 30.0989 80.6613 30.1415 80.576C30.2802 80.7787 30.3495 80.976 30.3495 81.168C30.3495 81.4667 30.2002 81.712 29.9015 81.904C29.6135 82.0853 29.2402 82.176 28.7815 82.176C28.2055 82.176 27.7575 81.9947 27.4375 81.632C27.1175 81.2693 26.9575 80.768 26.9575 80.128V74.64H26.7335C26.5949 74.64 26.4349 74.6453 26.2535 74.656C26.0722 74.6667 25.9122 74.6827 25.7735 74.704L25.7895 74.24C25.8002 74.1013 25.8482 73.9947 25.9335 73.92C26.0189 73.8453 26.1255 73.808 26.2535 73.808H26.9575V72.592C26.9575 72.3147 27.0535 72.096 27.2455 71.936C27.4375 71.7653 27.6829 71.68 27.9815 71.68C28.3549 71.68 28.6855 71.808 28.9735 72.064C28.8455 72.5333 28.7655 73.1147 28.7335 73.808H29.0215ZM38.4724 79.792C38.6431 79.8667 38.7284 80 38.7284 80.192C38.7284 80.32 38.6911 80.4747 38.6164 80.656C38.4138 81.1573 38.0511 81.5413 37.5284 81.808C37.0164 82.0747 36.3978 82.208 35.6724 82.208C34.4564 82.208 33.4964 81.8347 32.7924 81.088C32.0991 80.3413 31.7524 79.28 31.7524 77.904C31.7524 76.5493 32.0938 75.4933 32.7764 74.736C33.4591 73.968 34.4351 73.584 35.7044 73.584C36.6324 73.584 37.3844 73.792 37.9604 74.208C38.5364 74.6133 38.8244 75.1947 38.8244 75.952C38.8244 76.7413 38.5044 77.3493 37.8644 77.776C37.2351 78.192 36.3764 78.4 35.2884 78.4C34.6698 78.4 34.1204 78.3733 33.6404 78.32C33.7151 79.312 33.9658 80.0213 34.3924 80.448C34.8191 80.8747 35.4004 81.088 36.1364 81.088C36.7124 81.088 37.2031 80.9707 37.6084 80.736C38.0244 80.5013 38.3124 80.1867 38.4724 79.792ZM35.6404 74.24C35.0111 74.24 34.5151 74.5387 34.1524 75.136C33.8004 75.7227 33.6244 76.56 33.6244 77.648C33.9018 77.68 34.1844 77.696 34.4724 77.696C35.1978 77.696 35.7898 77.552 36.2484 77.264C36.7071 76.976 36.9364 76.448 36.9364 75.68C36.9364 75.1573 36.8138 74.7893 36.5684 74.576C36.3231 74.352 36.0138 74.24 35.6404 74.24ZM44.4493 73.584C45.036 73.584 45.5106 73.7387 45.8733 74.048C46.236 74.3573 46.4173 74.784 46.4173 75.328C46.4173 75.7333 46.3 76.0587 46.0653 76.304C45.8306 76.5493 45.5373 76.672 45.1853 76.672C44.8546 76.672 44.6146 76.5867 44.4653 76.416C44.5826 76.224 44.6626 76.0533 44.7053 75.904C44.748 75.744 44.7693 75.5627 44.7693 75.36C44.7693 74.752 44.5026 74.448 43.9693 74.448C43.5426 74.448 43.196 74.7627 42.9293 75.392C42.6733 76.0107 42.5453 76.944 42.5453 78.192V78.8C42.5453 79.7493 42.5613 80.4053 42.5933 80.768C42.6253 81.12 42.7053 81.456 42.8333 81.776C42.7266 81.872 42.588 81.9573 42.4173 82.032C42.2466 82.1067 42.0493 82.1493 41.8253 82.16C41.5373 82.16 41.292 82.0693 41.0893 81.888C40.8973 81.7067 40.8013 81.4613 40.8013 81.152V75.744C40.8013 75.456 40.764 75.248 40.6893 75.12C40.6253 74.9813 40.5186 74.912 40.3693 74.912C40.1666 74.912 40.028 74.9867 39.9533 75.136C39.8146 74.9333 39.7453 74.7307 39.7453 74.528C39.7453 74.2507 39.8466 74.0267 40.0493 73.856C40.252 73.6747 40.5346 73.584 40.8973 73.584C41.3346 73.584 41.6813 73.7333 41.9373 74.032C42.1933 74.3307 42.3266 74.7733 42.3373 75.36C42.7106 74.176 43.4146 73.584 44.4493 73.584ZM55.3618 80.576C55.4898 80.7467 55.5538 80.944 55.5538 81.168C55.5538 81.4453 55.4311 81.68 55.1858 81.872C54.9405 82.064 54.6258 82.16 54.2418 82.16C53.7191 82.16 53.3245 81.984 53.0578 81.632C52.7911 81.2693 52.6525 80.688 52.6418 79.888C52.3218 80.5813 51.8845 81.136 51.3298 81.552C50.7751 81.968 50.1405 82.176 49.4258 82.176C48.8071 82.176 48.3058 82.0107 47.9218 81.68C47.5485 81.3387 47.3618 80.88 47.3618 80.304C47.3618 79.632 47.6178 79.0773 48.1298 78.64C48.6418 78.2027 49.2978 77.872 50.0978 77.648C50.8978 77.424 51.7138 77.3227 52.5458 77.344V76.944C52.5458 76.016 52.4178 75.3333 52.1618 74.896C51.9058 74.4587 51.4791 74.24 50.8818 74.24C50.4765 74.24 50.1458 74.336 49.8898 74.528C49.6445 74.72 49.5218 75.0347 49.5218 75.472C49.5218 75.7173 49.5698 75.9467 49.6658 76.16C49.7618 76.3733 49.9218 76.5333 50.1458 76.64C50.0391 76.7573 49.8951 76.848 49.7138 76.912C49.5431 76.9653 49.3618 76.992 49.1698 76.992C48.7431 76.992 48.3965 76.8533 48.1298 76.576C47.8738 76.288 47.7458 75.9413 47.7458 75.536C47.7458 74.9067 48.0338 74.4267 48.6098 74.096C49.1858 73.7547 49.9805 73.584 50.9938 73.584C52.1458 73.584 52.9885 73.8613 53.5218 74.416C54.0658 74.96 54.3378 75.8347 54.3378 77.04V79.984C54.3378 80.5493 54.5191 80.832 54.8818 80.832C54.9671 80.832 55.0525 80.8107 55.1378 80.768C55.2338 80.7253 55.3085 80.6613 55.3618 80.576ZM50.2258 81.008C50.5778 81.008 50.9351 80.8693 51.2978 80.592C51.6711 80.304 51.9805 79.9253 52.2258 79.456C52.4711 78.9867 52.5938 78.4853 52.5938 77.952C52.2205 77.9307 51.8418 77.952 51.4578 78.016C51.0738 78.0693 50.7431 78.16 50.4658 78.288C50.0925 78.448 49.7991 78.6667 49.5858 78.944C49.3831 79.2107 49.2818 79.5253 49.2818 79.888C49.2818 80.208 49.3565 80.4747 49.5058 80.688C49.6658 80.9013 49.9058 81.008 50.2258 81.008ZM61.4193 73.584C62.4326 73.584 63.1526 73.9627 63.5793 74.72C64.0166 75.4773 64.2353 76.4267 64.2353 77.568C64.2353 79.0507 63.9313 80.1973 63.3233 81.008C62.726 81.808 61.8886 82.208 60.8113 82.208C60.31 82.208 59.8833 82.1173 59.5313 81.936C59.1793 81.744 58.9286 81.472 58.7793 81.12V82.4C58.7793 83.5307 58.87 84.4373 59.0513 85.12C58.7633 85.376 58.4273 85.504 58.0433 85.504C57.7553 85.504 57.5153 85.4187 57.3233 85.248C57.1313 85.088 57.0353 84.8693 57.0353 84.592L57.0513 75.792C57.0513 75.504 57.014 75.296 56.9393 75.168C56.8753 75.04 56.7686 74.976 56.6193 74.976C56.4166 74.976 56.278 75.0453 56.2033 75.184C56.0646 74.9813 55.9953 74.7787 55.9953 74.576C55.9953 74.3093 56.102 74.0907 56.3153 73.92C56.5286 73.7387 56.806 73.648 57.1473 73.648C58.0753 73.648 58.582 74.3413 58.6673 75.728C59.19 74.2987 60.1073 73.584 61.4193 73.584ZM60.3953 81.264C61.7073 81.264 62.3633 80.032 62.3633 77.568C62.3633 76.6187 62.262 75.8827 62.0593 75.36C61.8566 74.8267 61.4726 74.56 60.9073 74.56C60.4593 74.56 60.0753 74.752 59.7553 75.136C59.4353 75.52 59.1953 76.0267 59.0353 76.656C58.8753 77.2853 58.7953 77.952 58.7953 78.656C58.7953 79.5093 58.9126 80.16 59.1473 80.608C59.3926 81.0453 59.8086 81.264 60.3953 81.264ZM72.2068 79.792C72.3775 79.8667 72.4628 80 72.4628 80.192C72.4628 80.32 72.4255 80.4747 72.3508 80.656C72.1481 81.1573 71.7855 81.5413 71.2628 81.808C70.7508 82.0747 70.1321 82.208 69.4068 82.208C68.1908 82.208 67.2308 81.8347 66.5268 81.088C65.8335 80.3413 65.4868 79.28 65.4868 77.904C65.4868 76.5493 65.8281 75.4933 66.5108 74.736C67.1935 73.968 68.1695 73.584 69.4388 73.584C70.3668 73.584 71.1188 73.792 71.6948 74.208C72.2708 74.6133 72.5588 75.1947 72.5588 75.952C72.5588 76.7413 72.2388 77.3493 71.5988 77.776C70.9695 78.192 70.1108 78.4 69.0228 78.4C68.4041 78.4 67.8548 78.3733 67.3748 78.32C67.4495 79.312 67.7001 80.0213 68.1268 80.448C68.5535 80.8747 69.1348 81.088 69.8708 81.088C70.4468 81.088 70.9375 80.9707 71.3428 80.736C71.7588 80.5013 72.0468 80.1867 72.2068 79.792ZM69.3748 74.24C68.7455 74.24 68.2495 74.5387 67.8868 75.136C67.5348 75.7227 67.3588 76.56 67.3588 77.648C67.6361 77.68 67.9188 77.696 68.2068 77.696C68.9321 77.696 69.5241 77.552 69.9828 77.264C70.4415 76.976 70.6708 76.448 70.6708 75.68C70.6708 75.1573 70.5481 74.7893 70.3028 74.576C70.0575 74.352 69.7481 74.24 69.3748 74.24ZM67.2148 72.96C67.1401 72.96 67.0281 72.9387 66.8788 72.896C66.7401 72.8427 66.6655 72.7947 66.6548 72.752L68.6548 70.368C68.7508 70.336 68.9268 70.32 69.1828 70.32C69.3855 70.32 69.5348 70.336 69.6308 70.368L71.6308 72.752C71.6201 72.7947 71.5401 72.8427 71.3908 72.896C71.2415 72.9387 71.1295 72.96 71.0548 72.96L69.1508 71.616L67.2148 72.96ZM81.8637 80.656C81.9917 80.8373 82.0557 81.0347 82.0557 81.248C82.0557 81.536 81.9543 81.7653 81.7517 81.936C81.5597 82.1067 81.2823 82.192 80.9197 82.192C80.4503 82.192 80.0877 82.0373 79.8317 81.728C79.5863 81.4187 79.4637 80.9547 79.4637 80.336V80.304C79.2397 80.9227 78.9037 81.3973 78.4557 81.728C78.0183 82.0587 77.4743 82.224 76.8237 82.224C75.949 82.224 75.309 81.9733 74.9037 81.472C74.509 80.9707 74.3117 80.128 74.3117 78.944L74.2957 75.888C74.2957 75.0667 74.2103 74.4267 74.0397 73.968C74.3383 73.712 74.6743 73.584 75.0477 73.584C75.3463 73.584 75.5863 73.6693 75.7677 73.84C75.9597 74 76.0557 74.224 76.0557 74.512V78.688C76.0557 79.648 76.1517 80.336 76.3437 80.752C76.5357 81.1573 76.8823 81.36 77.3837 81.36C77.725 81.36 78.0397 81.2267 78.3277 80.96C78.6157 80.6827 78.845 80.2613 79.0157 79.696C79.197 79.1307 79.2877 78.432 79.2877 77.6C79.2877 76.3413 79.2717 75.5093 79.2397 75.104C79.2077 74.688 79.1223 74.304 78.9837 73.952C79.293 73.7067 79.629 73.584 79.9917 73.584C80.2797 73.584 80.5197 73.6747 80.7117 73.856C80.9037 74.0373 80.9997 74.2827 80.9997 74.592L81.0157 80.048C81.0157 80.3467 81.0477 80.56 81.1117 80.688C81.1863 80.8053 81.2983 80.864 81.4477 80.864C81.6397 80.864 81.7783 80.7947 81.8637 80.656ZM85.8028 73.808C86.0055 73.808 86.2828 73.8027 86.6348 73.792C86.9868 73.7813 87.2641 73.7707 87.4668 73.76L87.4508 74.192C87.4401 74.3307 87.3921 74.4427 87.3068 74.528C87.2321 74.6027 87.1308 74.64 87.0028 74.64H85.4988V75.168L85.4828 79.984C85.4828 80.56 85.7335 80.848 86.2348 80.848C86.3841 80.848 86.5228 80.8267 86.6508 80.784C86.7895 80.7307 86.8801 80.6613 86.9228 80.576C87.0615 80.7787 87.1308 80.976 87.1308 81.168C87.1308 81.4667 86.9815 81.712 86.6828 81.904C86.3948 82.0853 86.0215 82.176 85.5628 82.176C84.9868 82.176 84.5388 81.9947 84.2188 81.632C83.8988 81.2693 83.7388 80.768 83.7388 80.128V74.64H83.5148C83.3761 74.64 83.2161 74.6453 83.0348 74.656C82.8535 74.6667 82.6935 74.6827 82.5548 74.704L82.5708 74.24C82.5815 74.1013 82.6295 73.9947 82.7148 73.92C82.8001 73.8453 82.9068 73.808 83.0348 73.808H83.7388V72.592C83.7388 72.3147 83.8348 72.096 84.0268 71.936C84.2188 71.7653 84.4641 71.68 84.7628 71.68C85.1361 71.68 85.4668 71.808 85.7548 72.064C85.6268 72.5333 85.5468 73.1147 85.5148 73.808H85.8028ZM90.0217 72.592C89.723 72.592 89.467 72.4907 89.2537 72.288C89.051 72.0853 88.9497 71.84 88.9497 71.552C88.9497 71.2533 89.051 71.0027 89.2537 70.8C89.467 70.5867 89.723 70.48 90.0217 70.48C90.3097 70.48 90.555 70.5867 90.7577 70.8C90.971 71.0027 91.0777 71.2533 91.0777 71.552C91.0777 71.84 90.971 72.0853 90.7577 72.288C90.555 72.4907 90.3097 72.592 90.0217 72.592ZM90.9657 79.904C90.9657 80.736 91.051 81.3707 91.2217 81.808C90.923 82.0747 90.587 82.208 90.2137 82.208C89.9257 82.208 89.691 82.128 89.5097 81.968C89.3283 81.7973 89.2377 81.568 89.2377 81.28L89.2217 75.872C89.2217 75.0933 89.1363 74.4533 88.9657 73.952C89.2857 73.696 89.611 73.568 89.9417 73.568C90.2297 73.568 90.4643 73.6533 90.6457 73.824C90.8377 73.984 90.9337 74.208 90.9337 74.496L90.9657 79.904ZM96.6873 82.208C95.45 82.208 94.49 81.84 93.8073 81.104C93.1353 80.3573 92.7993 79.2907 92.7993 77.904C92.7993 76.56 93.146 75.504 93.8393 74.736C94.5326 73.968 95.5086 73.584 96.7673 73.584C97.674 73.584 98.3726 73.776 98.8633 74.16C99.3646 74.5333 99.6153 75.0187 99.6153 75.616C99.6153 76.0213 99.4926 76.3467 99.2473 76.592C99.0126 76.8373 98.7033 76.96 98.3193 76.96C98.138 76.96 97.9566 76.9333 97.7753 76.88C97.6046 76.816 97.4713 76.7253 97.3753 76.608C97.6953 76.3947 97.8553 76.016 97.8553 75.472C97.8553 75.0453 97.7433 74.736 97.5193 74.544C97.2953 74.3413 96.9966 74.24 96.6233 74.24C96.026 74.24 95.5513 74.5387 95.1993 75.136C94.8473 75.7227 94.6713 76.5547 94.6713 77.632C94.6713 78.8267 94.8953 79.7013 95.3433 80.256C95.7913 80.8107 96.41 81.088 97.1993 81.088C97.7646 81.088 98.25 80.9493 98.6553 80.672C99.0606 80.3947 99.322 80.016 99.4393 79.536C99.61 79.6 99.6953 79.7547 99.6953 80C99.6953 80.1387 99.674 80.288 99.6313 80.448C99.4606 81.0133 99.114 81.4507 98.5913 81.76C98.0793 82.0587 97.4446 82.208 96.6873 82.208ZM104.748 82.208C103.543 82.208 102.604 81.8293 101.932 81.072C101.271 80.3147 100.94 79.2587 100.94 77.904C100.94 76.5387 101.276 75.4773 101.948 74.72C102.62 73.9627 103.553 73.584 104.748 73.584C105.953 73.584 106.892 73.9627 107.564 74.72C108.236 75.4773 108.572 76.5387 108.572 77.904C108.572 79.2587 108.236 80.3147 107.564 81.072C106.892 81.8293 105.953 82.208 104.748 82.208ZM104.748 81.552C105.388 81.552 105.868 81.2427 106.188 80.624C106.519 80.0053 106.684 79.0987 106.684 77.904C106.684 76.6987 106.519 75.7867 106.188 75.168C105.868 74.5493 105.388 74.24 104.748 74.24C104.108 74.24 103.623 74.5493 103.292 75.168C102.972 75.7867 102.812 76.6987 102.812 77.904C102.812 79.0987 102.972 80.0053 103.292 80.624C103.623 81.2427 104.108 81.552 104.748 81.552Z" fill="#39B5AA"/>
<path d="M59.7766 58.0345C55.6926 59.931 50.9578 60.9531 47.124 57.6521C46.8392 57.4072 46.6149 57.1402 46.6942 56.7435C46.8165 56.1302 47.4413 55.5588 47.7699 55.042C48.3144 54.1859 48.7701 53.2265 49.0867 52.2632C50.2758 48.6428 50.1647 43.5658 46.8831 41.0479C42.9809 38.054 38.3524 40.8743 37.0743 44.9955C35.8282 49.0137 37.3964 53.806 40.2227 56.752C37.5991 57.5036 35.1959 58.813 32.4871 59.3878C25.9688 60.7712 18.8737 59.4406 13.1481 56.1082C9.73459 54.1215 6.62322 51.4126 4.31867 48.2018C3.50523 47.0685 2.42538 45.2885 0.734225 46.3163C-1.15013 47.4616 1.09301 50.1427 1.90013 51.1944C4.81568 54.9934 8.76813 58.3039 13.1481 60.3198C19.7777 63.3709 26.8586 64.2031 33.9913 62.692C36.0584 62.2543 38.0677 61.5837 40.0078 60.7533C40.8278 60.4023 42.1156 59.4616 43.0161 59.562C44.4275 59.7193 45.9821 61.4245 47.3137 62.005C50.793 63.522 54.4072 63.9493 58.0576 62.8254C59.4969 62.3821 61.145 61.7554 62.1403 60.5996C63.8284 62.1322 66.0315 63.4299 68.3717 63.5721C72.3812 63.8158 76.1192 60.4143 77.1817 56.752H77.6115C80.2996 64.043 91.348 65.5301 96.7354 60.5797C97.9822 59.4342 99.0291 58.0982 99.6943 56.5383C100.095 55.5973 100.181 53.9845 101.082 53.3907C102.271 52.6071 103.989 52.2283 105.331 51.7623C108.726 50.5826 112.449 49.5019 116.075 49.4846C121.016 49.4608 125.87 50.3248 130.257 52.6969C131.6 53.4234 134.036 55.6535 135.544 54.2908C136.674 53.2697 136.017 51.9258 134.98 51.1732C132.77 49.5692 130.062 48.3363 127.463 47.5197C121.607 45.6797 115.41 45.3704 109.413 46.7558C106.408 47.4503 103.585 48.7815 100.603 49.4843C100.215 47.4351 99.759 45.3636 98.384 43.7131C97.3706 42.4966 96.0569 41.5657 94.5869 40.9785C93.3154 40.4706 92.0861 40.2627 90.7191 40.296C82.7278 40.4908 80.1383 51.5385 87.0661 55.3594C88.4575 56.1268 89.7966 56.3422 91.3637 56.3236C93.0421 56.3038 94.8243 55.8185 96.3059 55.042C94.052 59.7548 87.905 61.3403 83.6281 58.2934C81.5021 56.7789 80.3572 54.4862 79.6698 52.0494C79.1258 50.1198 79.4371 48.1868 79.0417 46.2782C78.8707 45.4529 78.2912 44.7134 77.3966 44.6392C75.2165 44.4586 75.3271 47.3908 75.2562 48.8431C75.1052 51.932 74.3997 55.0864 72.5058 57.6068C71.0107 59.5967 68.9523 60.4897 66.6527 59.2882C66.1254 59.0127 65.2201 58.5557 65.0906 57.9082C64.9646 57.2789 65.7797 56.429 66.0491 55.897C66.7978 54.4182 67.4456 52.7982 67.8608 51.1944C68.9006 47.1764 69.2313 43.1471 69.2313 39.0104C69.2313 36.0612 68.835 32.7405 67.1029 30.2464C66.6317 29.5678 66.0438 28.9671 65.3635 28.4936C64.8372 28.1275 64.2616 27.8837 63.6444 27.7155C59.2987 26.5308 56.7028 30.9375 55.8848 34.5215C55.2109 37.4745 55.3703 40.7245 55.6574 43.713C55.9279 46.5292 56.2051 49.3349 57.0947 52.0494C57.7886 54.1675 58.8999 56.0107 59.7766 58.0345Z" fill="#FCD75B"/>
<path d="M62.1403 54.8284H62.57C64.9803 49.0694 66.1538 43.1632 65.5418 36.873C65.3764 35.1727 64.6883 31.1992 62.3552 31.1992C60.059 31.1992 59.3381 35.1874 59.1687 36.873C58.5398 43.1293 59.7405 49.0944 62.1403 54.8284ZM42.3724 43.658C39.4951 44.7616 40.2255 49.6942 41.1768 51.8358C41.5045 52.5737 42.3859 54.6044 43.4459 54.3269C44.2057 54.1281 44.7567 53.1119 45.0947 52.4771C46.1581 50.4797 46.5629 47.8078 45.8525 45.6369C45.3878 44.2169 43.9057 43.0699 42.3724 43.658ZM96.9505 51.1945C96.9503 49.8519 96.8786 48.5991 96.3317 47.3469C95.9421 46.4547 95.3538 45.6848 94.586 45.0791C93.9025 44.5399 93.0789 44.1874 92.2232 44.0268C91.4002 43.8723 90.452 43.8557 89.6447 44.0979C86.6912 44.9842 85.6746 48.8543 87.6102 51.1747C88.6352 52.4033 90.0332 52.7836 91.5786 52.6716C93.4702 52.5343 95.1131 51.509 96.9505 51.1945Z" fill="#EAF0FE"/>
</svg>
